<?xml version="1.0" encoding="UTF-8"?>
<svg
  xmlns="http://www.w3.org/2000/svg"
  width="18"
  height="18"
  viewBox="0 0 48 48"
>
  <path
    fill="#EA4335"
    d="M24 9.5c3.54 0 6.7 1.22 9.2 3.6l6.9-6.9C35.9 2.4 30.4 0 24 0 14.6 0 6.4 5.8 2.6 14.1l8 6.2C12.4 13.2 17.7 9.5 24 9.5z"
  />
  <path
    fill="#4285F4"
    d="M46.1 24.5c0-1.7-.1-3.3-.4-4.9H24v9.3h12.4c-.5 2.8-2.1 5.2-4.5 6.8l7 5.4c4.1-3.8 6.5-9.4 6.5-16.6z"
  />
  <path
    fill="#FBBC05"
    d="M10.6 28.3c-.5-1.5-.8-3.1-.8-4.8s.3-3.3.8-4.8l-8-6.2C.9 15.9 0 19.8 0 23.5s.9 7.6 2.6 10.9l8-6.1z"
  />
  <path
    fill="#34A853"
    d="M24 48c6.4 0 11.9-2.1 15.9-5.8l-7-5.4c-1.9 1.3-4.4 2.1-8.9 2.1-6.3 0-11.6-3.7-13.4-9l-8 6.1C6.4 42.2 14.6 48 24 48z"
  />
</svg>
